<?xml version="1.0" standalone="no"?>
<!DOCTYPE svg PUBLIC "-//W3C//DTD SVG 20010904//EN"
 "http://www.w3.org/TR/2001/REC-SVG-20010904/DTD/svg10.dtd">
<svg version="1.0" xmlns="http://www.w3.org/2000/svg"
 width="1280.000000pt" height="1280.000000pt" viewBox="0 0 1280.000000 1280.000000"
 preserveAspectRatio="xMidYMid meet">
<metadata>
Created by potrace 1.14, written by Peter Selinger 2001-2017
</metadata>
<g transform="translate(0.000000,1280.000000) scale(0.100000,-0.100000)"
fill="#000000" stroke="none">
<path d="M0 6400 l0 -6400 6400 0 6400 0 0 6400 0 6400 -6400 0 -6400 0 0
-6400z m9484 4767 c18 -69 -13 -187 -167 -637 -206 -599 -442 -1208 -588
-1516 -64 -135 -173 -230 -402 -347 -144 -75 -311 -147 -457 -198 -83 -28
-160 -64 -229 -106 -111 -67 -148 -79 -212 -69 -53 8 -139 52 -139 71 0 8 9
29 20 47 11 18 20 51 21 73 2 67 11 87 49 100 181 63 573 339 845 596 177 168
305 336 305 400 -1 23 -2 22 -33 -12 -17 -19 -59 -68 -92 -108 -84 -103 -359
-368 -495 -476 -177 -142 -358 -265 -389 -265 -26 0 -71 24 -71 39 0 4 37 32
82 62 250 165 585 476 689 638 36 55 38 105 8 122 -49 26 -154 -12 -296 -107
-47 -31 -87 -54 -90 -51 -29 30 234 276 587 552 292 226 324 255 287 255 -36
0 -663 -484 -782 -605 -127 -127 -265 -335 -395 -590 -175 -345 -213 -415
-221 -409 -5 3 -27 35 -49 72 l-40 67 34 130 c84 319 214 632 374 900 160 268
169 275 722 608 301 181 341 208 535 362 408 325 533 423 546 427 21 8 36 -1
43 -25z m-913 -29 c22 -41 28 -181 15 -363 -7 -96 -17 -180 -22 -184 -14 -13
-232 -153 -406 -260 -303 -187 -423 -289 -533 -455 -119 -180 -254 -479 -341
-759 -30 -99 -39 -117 -53 -111 -44 19 -82 16 -121 -10 l-40 -26 0 170 c0 195
21 401 53 510 20 72 25 79 122 176 55 55 171 162 258 238 129 113 174 160 249
259 242 322 554 660 725 787 37 27 71 50 75 50 4 0 13 -10 19 -22z m-2291
-150 c45 -99 100 -258 215 -633 107 -345 194 -598 297 -865 149 -383 176 -456
207 -566 51 -177 71 -146 -189 -280 -447 -230 -885 -483 -1218 -706 -137 -91
-286 -200 -297 -218 -15 -25 -33 -4 -53 64 l-21 73 -103 73 c-283 202 -586
438 -742 579 -155 140 -334 355 -435 520 -55 91 -114 224 -109 248 2 9 91 49
243 109 132 52 292 115 356 140 106 42 119 50 153 94 49 65 197 212 283 282
241 198 590 366 893 432 22 4 48 45 155 238 136 246 257 451 283 481 27 31 42
19 82 -65z m1920 -1456 c0 -39 -69 -124 -233 -287 -162 -160 -297 -277 -411
-355 -39 -27 -48 -29 -42 -14 20 54 202 374 230 403 49 52 212 165 319 221
104 54 137 61 137 32z m-980 -567 c10 -12 9 -31 -6 -96 -17 -71 -21 -79 -39
-75 -11 3 -37 6 -57 6 l-38 0 0 46 c0 25 7 58 16 73 31 53 98 77 124 46z m-12
-272 c54 -82 73 -131 74 -192 0 -69 -12 -81 -150 -148 -104 -49 -122 -62 -229
-166 -230 -223 -563 -589 -762 -837 -191 -237 -417 -568 -543 -795 -25 -44
-68 -121 -96 -172 -59 -105 -239 -466 -298 -595 -26 -57 -42 -84 -49 -77 -6 6
-10 126 -10 312 0 261 2 308 17 347 13 33 20 103 28 260 15 295 45 520 69 520
9 0 40 -68 61 -132 7 -22 18 -38 27 -38 28 0 243 240 243 271 0 23 -30 1 -115
-81 l-92 -91 -28 78 c-75 212 -120 381 -110 412 22 71 1157 805 1650 1067 61
32 130 71 154 86 29 18 59 28 83 28 34 0 40 -4 76 -57z m81 -429 c60 -97 271
-479 371 -669 34 -66 70 -133 80 -150 30 -52 293 -551 392 -745 71 -139 108
-227 150 -355 31 -93 58 -188 62 -210 3 -22 12 -87 21 -145 92 -627 187 -1381
215 -1705 6 -66 15 -156 20 -200 10 -76 44 -447 56 -605 3 -41 12 -138 19
-215 8 -77 22 -246 30 -375 9 -129 20 -287 25 -350 5 -63 10 -163 10 -221 0
-102 -2 -109 -35 -176 -43 -85 -98 -150 -165 -193 -116 -75 -323 -144 -560
-189 -208 -40 -289 -51 -505 -71 -1016 -92 -2270 5 -3102 240 -160 45 -200 65
-237 118 -58 82 -45 196 33 284 48 55 103 72 209 65 79 -6 134 -18 437 -100
385 -104 388 -104 831 -142 629 -53 1369 -87 1809 -83 402 4 458 12 610 82 72
33 116 68 58 45 -15 -6 -75 -22 -133 -36 -100 -25 -122 -26 -465 -31 -367 -4
-820 7 -1295 34 -267 14 -614 40 -660 49 -14 2 -79 9 -145 15 -189 17 -456 68
-470 90 -4 7 21 134 75 375 47 212 114 438 170 575 53 128 110 208 198 277 22
17 25 31 37 178 39 464 58 884 75 1675 21 967 20 951 41 992 69 135 374 598
548 833 281 377 609 745 891 999 61 56 211 141 235 133 5 -2 34 -44 64 -93z"/>
<path d="M7104 8591 c-73 -50 -191 -156 -182 -166 3 -3 21 1 39 11 35 18 235
169 244 185 15 24 -49 5 -101 -30z"/>
<path d="M6724 8270 c-213 -118 -855 -703 -805 -734 12 -8 57 29 232 196 158
150 277 250 479 400 128 96 190 150 190 167 0 19 -22 12 -96 -29z"/>
<path d="M5455 6648 c-120 -124 -260 -317 -242 -335 10 -10 47 28 156 156 117
138 180 222 181 239 0 26 -27 9 -95 -60z"/>
</g>
</svg>
